<svg xmlns="http://www.w3.org/2000/svg" width="1900" height="1220" viewBox="0 0 1900 1220" role="img" aria-labelledby="title desc">
  <title id="title">Messaging API on Amazon EKS architecture</title>
  <desc id="desc">Editable SVG architecture diagram for the Messaging API Terraform and Helm deployment on Amazon EKS.</desc>

  <defs>
    <style>
      .bg { fill: #f8fafc; }
      .title { font: 700 32px Inter, Arial, sans-serif; fill: #111827; }
      .subtitle { font: 16px Inter, Arial, sans-serif; fill: #475569; }
      .frame-title { font: 700 20px Inter, Arial, sans-serif; fill: #111827; }
      .node-title { font: 700 18px Inter, Arial, sans-serif; fill: #0f172a; }
      .node-sub { font: 14px Inter, Arial, sans-serif; fill: #475569; }
      .small-label { font: 700 14px Inter, Arial, sans-serif; fill: #475569; letter-spacing: 0.4px; text-transform: uppercase; }
      .box { stroke-width: 2.2; rx: 18; ry: 18; }
      .outer { fill: #ffffff; stroke: #cbd5e1; }
      .vpc { fill: #fefce8; stroke: #eab308; }
      .public-zone { fill: #fff7ed; stroke: #fb923c; }
      .private-zone { fill: #f8fafc; stroke: #94a3b8; }
      .eks-zone { fill: #eef6ff; stroke: #60a5fa; }
      .auth-zone { fill: #ecfdf5; stroke: #34d399; }
      .msg-zone { fill: #eff6ff; stroke: #60a5fa; }
      .data-zone { fill: #fff7ed; stroke: #fb923c; }
      .secret-zone { fill: #fef2f2; stroke: #f87171; }
      .aws-node { fill: #fffaf5; stroke: #fb923c; }
      .auth-node { fill: #f0fdf4; stroke: #22c55e; }
      .msg-node { fill: #f8fbff; stroke: #3b82f6; }
      .sec-node { fill: #fff5f5; stroke: #ef4444; }
      .infra-node { fill: #f8fafc; stroke: #64748b; }
      .traffic { fill: none; stroke: #2563eb; stroke-width: 3.2; }
      .grpc { fill: none; stroke: #059669; stroke-width: 3.2; stroke-dasharray: 10 8; }
      .dataflow { fill: none; stroke: #b45309; stroke-width: 3.2; }
      .secretflow { fill: none; stroke: #dc2626; stroke-width: 3.2; stroke-dasharray: 8 6; }
      .identity { fill: none; stroke: #475569; stroke-width: 3.2; stroke-dasharray: 6 6; }
      .icon { fill: none; stroke: #0f172a; stroke-width: 2; stroke-linecap: round; stroke-linejoin: round; }
      .icon-accent-aws { stroke: #c2410c; }
      .icon-accent-auth { stroke: #15803d; }
      .icon-accent-msg { stroke: #1d4ed8; }
      .icon-accent-sec { stroke: #b91c1c; }
      .icon-accent-infra { stroke: #334155; }
    </style>

    <marker id="arrow-blue" markerWidth="12" markerHeight="12" refX="10" refY="6" orient="auto" markerUnits="strokeWidth">
      <path d="M0,0 L12,6 L0,12 z" fill="#2563eb" />
    </marker>
    <marker id="arrow-green" markerWidth="12" markerHeight="12" refX="10" refY="6" orient="auto" markerUnits="strokeWidth">
      <path d="M0,0 L12,6 L0,12 z" fill="#059669" />
    </marker>
    <marker id="arrow-orange" markerWidth="12" markerHeight="12" refX="10" refY="6" orient="auto" markerUnits="strokeWidth">
      <path d="M0,0 L12,6 L0,12 z" fill="#b45309" />
    </marker>
    <marker id="arrow-red" markerWidth="12" markerHeight="12" refX="10" refY="6" orient="auto" markerUnits="strokeWidth">
      <path d="M0,0 L12,6 L0,12 z" fill="#dc2626" />
    </marker>
    <marker id="arrow-slate" markerWidth="12" markerHeight="12" refX="10" refY="6" orient="auto" markerUnits="strokeWidth">
      <path d="M0,0 L12,6 L0,12 z" fill="#475569" />
    </marker>

    <g id="icon-monitor">
      <rect x="2" y="3" width="26" height="18" rx="3" class="icon" />
      <path d="M10 27h10M15 21v6" class="icon" />
    </g>
    <g id="icon-loadbalancer">
      <rect x="3" y="4" width="8" height="8" rx="2" class="icon" />
      <rect x="21" y="4" width="8" height="8" rx="2" class="icon" />
      <rect x="12" y="20" width="8" height="8" rx="2" class="icon" />
      <path d="M11 8h10M16 12v8M7 12l7 8M25 12l-7 8" class="icon" />
    </g>
    <g id="icon-route">
      <path d="M5 5v7c0 4 3 7 7 7h3" class="icon" />
      <path d="M15 10h10" class="icon" />
      <path d="M25 10l-4-4M25 10l-4 4" class="icon" />
      <path d="M18 19h7" class="icon" />
      <path d="M25 19l-4-4M25 19l-4 4" class="icon" />
    </g>
    <g id="icon-service">
      <circle cx="6" cy="16" r="3" class="icon" />
      <circle cx="16" cy="7" r="3" class="icon" />
      <circle cx="26" cy="16" r="3" class="icon" />
      <circle cx="16" cy="25" r="3" class="icon" />
      <path d="M8 14l6-5M18 9l6 5M8 18l6 5M18 23l6-5" class="icon" />
    </g>
    <g id="icon-server">
      <rect x="5" y="4" width="22" height="10" rx="2" class="icon" />
      <rect x="5" y="18" width="22" height="10" rx="2" class="icon" />
      <path d="M9 9h2M13 9h10M9 23h2M13 23h10" class="icon" />
    </g>
    <g id="icon-worker">
      <circle cx="16" cy="16" r="5" class="icon" />
      <path d="M16 3v4M16 25v4M3 16h4M25 16h4M7 7l3 3M22 22l3 3M7 25l3-3M22 10l3-3" class="icon" />
    </g>
    <g id="icon-badge">
      <rect x="4" y="4" width="24" height="24" rx="4" class="icon" />
      <circle cx="12" cy="12" r="3" class="icon" />
      <path d="M18 12h6M10 20h12" class="icon" />
    </g>
    <g id="icon-plug">
      <path d="M12 4v7M20 4v7M10 11h12M16 11v6a4 4 0 0 0 4 4h2M8 21h2" class="icon" />
      <path d="M10 21a4 4 0 0 0 4-4v-6" class="icon" />
    </g>
    <g id="icon-lock">
      <rect x="6" y="13" width="20" height="14" rx="3" class="icon" />
      <path d="M10 13V9a6 6 0 0 1 12 0v4" class="icon" />
    </g>
    <g id="icon-key">
      <circle cx="10" cy="17" r="4" class="icon" />
      <path d="M14 17h13M23 17v-3M20 17v3" class="icon" />
    </g>
    <g id="icon-db">
      <ellipse cx="16" cy="8" rx="10" ry="4" class="icon" />
      <path d="M6 8v12c0 2 4.5 4 10 4s10-2 10-4V8" class="icon" />
      <path d="M6 14c0 2 4.5 4 10 4s10-2 10-4" class="icon" />
    </g>
    <g id="icon-stack">
      <rect x="7" y="6" width="18" height="5" rx="2" class="icon" />
      <rect x="5" y="14" width="22" height="5" rx="2" class="icon" />
      <rect x="7" y="22" width="18" height="5" rx="2" class="icon" />
    </g>
    <g id="icon-eks">
      <polygon points="16,3 27,9 27,22 16,29 5,22 5,9" class="icon" />
      <path d="M10 16h12M16 10v12" class="icon" />
    </g>
  </defs>

  <rect class="bg" x="0" y="0" width="1900" height="1220" />

  <text x="80" y="58" class="title">Messaging API on Amazon EKS</text>
  <text x="80" y="88" class="subtitle">Editable SVG source with vector icons. Open it in Figma, Illustrator, Inkscape, or import it into draw.io.</text>

  <rect x="60" y="110" width="1780" height="1060" class="box outer" />
  <text x="90" y="145" class="frame-title">AWS Account</text>

  <rect x="110" y="170" width="1680" height="950" class="box vpc" />
  <text x="140" y="205" class="frame-title">VPC · 10.0.0.0/16 · us-east-1</text>

  <rect x="170" y="235" width="890" height="120" class="box public-zone" />
  <text x="200" y="268" class="small-label">Public Subnets</text>

  <rect x="170" y="385" width="1150" height="670" class="box private-zone" />
  <text x="200" y="418" class="small-label">Private Subnets</text>

  <rect x="1350" y="235" width="390" height="260" class="box secret-zone" />
  <text x="1380" y="268" class="frame-title">AWS Secrets Manager</text>

  <rect x="1350" y="530" width="390" height="525" class="box data-zone" />
  <text x="1380" y="563" class="frame-title">Managed Data Services</text>

  <rect x="220" y="450" width="1050" height="560" class="box eks-zone" />
  <text x="250" y="483" class="frame-title">Amazon EKS Auto Mode Cluster · messaging-api-cluster</text>

  <rect x="255" y="520" width="470" height="440" class="box auth-zone" />
  <text x="285" y="553" class="frame-title">Namespace · authentication</text>

  <rect x="765" y="520" width="470" height="440" class="box msg-zone" />
  <text x="795" y="553" class="frame-title">Namespace · messaging</text>

  <g>
    <rect x="95" y="250" width="165" height="86" class="box infra-node" />
    <use href="#icon-monitor" transform="translate(116 274)" class="icon icon-accent-infra" />
    <text x="160" y="286" class="node-title">Client</text>
    <text x="160" y="308" class="node-sub">Browser / Postman</text>
    <text x="160" y="326" class="node-sub">Smoke test script</text>
  </g>

  <g>
    <rect x="535" y="255" width="235" height="82" class="box aws-node" />
    <use href="#icon-loadbalancer" transform="translate(556 277)" class="icon icon-accent-aws" />
    <text x="602" y="290" class="node-title">Shared ALB</text>
    <text x="602" y="312" class="node-sub">EKS Auto Mode</text>
    <text x="602" y="330" class="node-sub">IngressClass: alb</text>
  </g>

  <g>
    <rect x="365" y="585" width="150" height="78" class="box auth-node" />
    <use href="#icon-route" transform="translate(386 606)" class="icon icon-accent-auth" />
    <text x="430" y="620" class="node-title">Auth Ingress</text>
    <text x="430" y="642" class="node-sub">Path: /auth</text>
  </g>

  <g>
    <rect x="530" y="580" width="175" height="88" class="box auth-node" />
    <use href="#icon-service" transform="translate(550 607)" class="icon icon-accent-auth" />
    <text x="597" y="616" class="node-title">authentication-service</text>
    <text x="597" y="638" class="node-sub">ClusterIP</text>
    <text x="597" y="656" class="node-sub">HTTP 8001 / gRPC 50051</text>
  </g>

  <g>
    <rect x="440" y="700" width="265" height="94" class="box auth-node" />
    <use href="#icon-server" transform="translate(460 728)" class="icon icon-accent-auth" />
    <text x="510" y="736" class="node-title">authentication deployment</text>
    <text x="510" y="758" class="node-sub">Django + Gunicorn 8001</text>
    <text x="510" y="776" class="node-sub">gRPC server 50051</text>
  </g>

  <g>
    <rect x="285" y="830" width="185" height="78" class="box auth-node" />
    <use href="#icon-worker" transform="translate(305 852)" class="icon icon-accent-auth" />
    <text x="355" y="866" class="node-title">auth-celery</text>
    <text x="355" y="888" class="node-sub">Celery worker</text>
  </g>

  <g>
    <rect x="500" y="830" width="190" height="78" class="box auth-node" />
    <use href="#icon-plug" transform="translate(520 852)" class="icon icon-accent-auth" />
    <text x="570" y="866" class="node-title">auth-aws-secrets</text>
    <text x="570" y="888" class="node-sub">SecretProviderClass</text>
  </g>

  <g>
    <rect x="390" y="920" width="205" height="54" class="box infra-node" />
    <use href="#icon-badge" transform="translate(410 932)" class="icon icon-accent-infra" />
    <text x="458" y="954" class="node-title">ServiceAccount · auth-workload</text>
  </g>

  <g>
    <rect x="875" y="585" width="150" height="78" class="box msg-node" />
    <use href="#icon-route" transform="translate(896 606)" class="icon icon-accent-msg" />
    <text x="942" y="620" class="node-title">API Ingress</text>
    <text x="942" y="642" class="node-sub">Path: /api</text>
  </g>

  <g>
    <rect x="1040" y="580" width="175" height="88" class="box msg-node" />
    <use href="#icon-service" transform="translate(1060 607)" class="icon icon-accent-msg" />
    <text x="1107" y="616" class="node-title">messaging-service</text>
    <text x="1107" y="638" class="node-sub">ClusterIP</text>
    <text x="1107" y="656" class="node-sub">HTTP 8000</text>
  </g>

  <g>
    <rect x="955" y="700" width="260" height="94" class="box msg-node" />
    <use href="#icon-server" transform="translate(975 728)" class="icon icon-accent-msg" />
    <text x="1025" y="736" class="node-title">messaging deployment</text>
    <text x="1025" y="758" class="node-sub">Django + Gunicorn 8000</text>
    <text x="1025" y="776" class="node-sub">Calls auth over gRPC</text>
  </g>

  <g>
    <rect x="795" y="830" width="195" height="78" class="box msg-node" />
    <use href="#icon-worker" transform="translate(815 852)" class="icon icon-accent-msg" />
    <text x="865" y="866" class="node-title">messaging-celery</text>
    <text x="865" y="888" class="node-sub">Celery worker</text>
  </g>

  <g>
    <rect x="1020" y="830" width="195" height="78" class="box msg-node" />
    <use href="#icon-plug" transform="translate(1040 852)" class="icon icon-accent-msg" />
    <text x="1090" y="866" class="node-title">messaging-aws-secrets</text>
    <text x="1090" y="888" class="node-sub">SecretProviderClass</text>
  </g>

  <g>
    <rect x="915" y="920" width="210" height="54" class="box infra-node" />
    <use href="#icon-badge" transform="translate(935 932)" class="icon icon-accent-infra" />
    <text x="983" y="954" class="node-title">ServiceAccount · messaging-workload</text>
  </g>

  <g>
    <rect x="335" y="465" width="235" height="70" class="box infra-node" />
    <use href="#icon-key" transform="translate(356 485)" class="icon icon-accent-infra" />
    <text x="404" y="500" class="node-title">EKS Pod Identity</text>
    <text x="404" y="520" class="node-sub">IAM role association</text>
  </g>

  <g>
    <rect x="925" y="465" width="255" height="70" class="box infra-node" />
    <use href="#icon-plug" transform="translate(946 485)" class="icon icon-accent-infra" />
    <text x="996" y="500" class="node-title">AWS Secrets Store CSI</text>
    <text x="996" y="520" class="node-sub">EKS add-on + provider</text>
  </g>

  <g>
    <rect x="1410" y="305" width="270" height="74" class="box sec-node" />
    <use href="#icon-lock" transform="translate(1432 326)" class="icon icon-accent-sec" />
    <text x="1480" y="340" class="node-title">Shared JWT secret</text>
    <text x="1480" y="362" class="node-sub">Field: access_token</text>
  </g>

  <g>
    <rect x="1380" y="400" width="145" height="74" class="box sec-node" />
    <use href="#icon-lock" transform="translate(1398 421)" class="icon icon-accent-sec" />
    <text x="1445" y="435" class="node-title">Auth DB</text>
    <text x="1445" y="457" class="node-sub">master secret</text>
  </g>

  <g>
    <rect x="1550" y="400" width="145" height="74" class="box sec-node" />
    <use href="#icon-lock" transform="translate(1568 421)" class="icon icon-accent-sec" />
    <text x="1615" y="435" class="node-title">Messaging DB</text>
    <text x="1615" y="457" class="node-sub">master secret</text>
  </g>

  <g>
    <rect x="1380" y="600" width="145" height="92" class="box aws-node" />
    <use href="#icon-db" transform="translate(1400 628)" class="icon icon-accent-aws" />
    <text x="1448" y="640" class="node-title">Auth RDS</text>
    <text x="1448" y="662" class="node-sub">PostgreSQL</text>
    <text x="1448" y="680" class="node-sub">Port 5432</text>
  </g>

  <g>
    <rect x="1550" y="600" width="145" height="92" class="box aws-node" />
    <use href="#icon-db" transform="translate(1570 628)" class="icon icon-accent-aws" />
    <text x="1618" y="640" class="node-title">Messaging RDS</text>
    <text x="1618" y="662" class="node-sub">PostgreSQL</text>
    <text x="1618" y="680" class="node-sub">Port 5432</text>
  </g>

  <g>
    <rect x="1380" y="730" width="145" height="92" class="box aws-node" />
    <use href="#icon-stack" transform="translate(1400 758)" class="icon icon-accent-aws" />
    <text x="1448" y="770" class="node-title">Auth Redis</text>
    <text x="1448" y="792" class="node-sub">ElastiCache</text>
    <text x="1448" y="810" class="node-sub">TLS 6379</text>
  </g>

  <g>
    <rect x="1550" y="730" width="145" height="92" class="box aws-node" />
    <use href="#icon-stack" transform="translate(1570 758)" class="icon icon-accent-aws" />
    <text x="1618" y="770" class="node-title">Messaging Redis</text>
    <text x="1618" y="792" class="node-sub">ElastiCache</text>
    <text x="1618" y="810" class="node-sub">TLS 6379</text>
  </g>

  <g>
    <rect x="1470" y="870" width="140" height="86" class="box aws-node" />
    <use href="#icon-eks" transform="translate(1492 895)" class="icon icon-accent-aws" />
    <text x="1540" y="906" text-anchor="middle" class="node-title">Notes</text>
    <text x="1540" y="928" text-anchor="middle" class="node-sub">In-cluster Postgres</text>
    <text x="1540" y="946" text-anchor="middle" class="node-sub">and Redis are disabled</text>
  </g>

  <path d="M260 293H535" class="traffic" marker-end="url(#arrow-blue)" />
  <path d="M652 337V375H440V585" class="traffic" marker-end="url(#arrow-blue)" />
  <path d="M652 337V375H950V585" class="traffic" marker-end="url(#arrow-blue)" />

  <path d="M515 624H530" class="traffic" marker-end="url(#arrow-blue)" />
  <path d="M705 624V700H572" class="traffic" marker-end="url(#arrow-blue)" />

  <path d="M1025 624H1040" class="traffic" marker-end="url(#arrow-blue)" />
  <path d="M1215 624V700H1085" class="traffic" marker-end="url(#arrow-blue)" />

  <path d="M1085 700V660H705" class="grpc" marker-end="url(#arrow-green)" />

  <path d="M572 794V830H378" class="dataflow" marker-end="url(#arrow-orange)" />
  <path d="M572 794V830H595" class="secretflow" marker-end="url(#arrow-red)" />

  <path d="M1085 794V830H892" class="dataflow" marker-end="url(#arrow-orange)" />
  <path d="M1085 794V830H1118" class="secretflow" marker-end="url(#arrow-red)" />

  <path d="M378 830V646H1380" class="dataflow" marker-end="url(#arrow-orange)" />
  <path d="M378 830V776H1380" class="dataflow" marker-end="url(#arrow-orange)" />
  <path d="M572 794H1380" class="dataflow" marker-end="url(#arrow-orange)" />

  <path d="M892 830V646H1550" class="dataflow" marker-end="url(#arrow-orange)" />
  <path d="M892 830V776H1550" class="dataflow" marker-end="url(#arrow-orange)" />
  <path d="M1085 794H1550" class="dataflow" marker-end="url(#arrow-orange)" />

  <path d="M492 920V535" class="identity" marker-end="url(#arrow-slate)" />
  <path d="M1020 920V535" class="identity" marker-end="url(#arrow-slate)" />

  <path d="M595 830V535H925" class="secretflow" marker-end="url(#arrow-red)" />
  <path d="M1118 830V535H1052" class="secretflow" marker-end="url(#arrow-red)" />

  <path d="M1052 465V379H1545" class="secretflow" marker-end="url(#arrow-red)" />
  <path d="M1052 465V437H1452" class="secretflow" marker-end="url(#arrow-red)" />
  <path d="M1052 465V437H1622" class="secretflow" marker-end="url(#arrow-red)" />

  <path d="M595 830V379H1545" class="secretflow" marker-end="url(#arrow-red)" />
  <path d="M595 830V437H1452" class="secretflow" marker-end="url(#arrow-red)" />

  <path d="M1118 830V437H1622" class="secretflow" marker-end="url(#arrow-red)" />

  <text x="310" y="286" class="node-sub" fill="#2563eb">HTTP / HTTPS</text>
  <text x="742" y="675" class="node-sub" fill="#059669">gRPC token validation</text>
  <text x="1285" y="643" class="node-sub" fill="#b45309">PostgreSQL 5432</text>
  <text x="1280" y="776" class="node-sub" fill="#b45309">Redis TLS 6379</text>
  <text x="1200" y="506" class="node-sub" fill="#dc2626">mount /mnt/secrets-store</text>
</svg>
